<mxfile host="app.diagrams.net" modified="2021-07-22T10:04:05.358Z" agent="5.0 (Windows NT 10.0; Win64; x64) AppleWebKit/537.36 (KHTML, like Gecko) Chrome/92.0.4515.107 Safari/537.36" etag="gjd0vbCJOB3cf9a9WGDG" version="14.8.5" type="github">
  <diagram id="uJsgZqojlDLZ_dLQdqBV" name="第 1 页">
    <mxGraphModel dx="579" dy="374" grid="0" gridSize="10" guides="1" tooltips="1" connect="1" arrows="1" fold="1" page="0" pageScale="1" pageWidth="827" pageHeight="1169" math="0" shadow="0">
      <root>
        <mxCell id="0" />
        <mxCell id="1" parent="0" />
        <mxCell id="kMU8WNk6aDGuvhEju-qt-1" value="&lt;b&gt;TCB&amp;nbsp;结构体&lt;/b&gt;" style="rounded=0;whiteSpace=wrap;html=1;editable=0;" parent="1" vertex="1">
          <mxGeometry x="49" y="100" width="110" height="41" as="geometry" />
        </mxCell>
        <mxCell id="kMU8WNk6aDGuvhEju-qt-2" value="&lt;b&gt;stack&lt;/b&gt;" style="rounded=0;whiteSpace=wrap;html=1;editable=0;" parent="1" vertex="1">
          <mxGeometry x="49" y="141" width="110" height="38" as="geometry" />
        </mxCell>
        <mxCell id="kMU8WNk6aDGuvhEju-qt-3" value="" style="shape=flexArrow;endArrow=classic;html=1;endWidth=10;endSize=5.833333333333333;editable=0;" parent="1" edge="1">
          <mxGeometry width="50" height="50" relative="1" as="geometry">
            <mxPoint x="173" y="100" as="sourcePoint" />
            <mxPoint x="173" y="176" as="targetPoint" />
          </mxGeometry>
        </mxCell>
        <mxCell id="kMU8WNk6aDGuvhEju-qt-4" value="stack" style="rounded=0;whiteSpace=wrap;html=1;editable=0;" parent="1" vertex="1">
          <mxGeometry x="49" y="225" width="110" height="41" as="geometry" />
        </mxCell>
        <mxCell id="kMU8WNk6aDGuvhEju-qt-5" value="&lt;b&gt;TCB&amp;nbsp;结构体&lt;/b&gt;" style="rounded=0;whiteSpace=wrap;html=1;editable=0;" parent="1" vertex="1">
          <mxGeometry x="49" y="266" width="110" height="38" as="geometry" />
        </mxCell>
        <mxCell id="kMU8WNk6aDGuvhEju-qt-6" value="" style="shape=flexArrow;endArrow=classic;html=1;endWidth=10;endSize=5.833333333333333;editable=0;" parent="1" edge="1">
          <mxGeometry width="50" height="50" relative="1" as="geometry">
            <mxPoint x="175" y="304" as="sourcePoint" />
            <mxPoint x="175" y="232" as="targetPoint" />
          </mxGeometry>
        </mxCell>
        <mxCell id="kMU8WNk6aDGuvhEju-qt-7" value="向下增长" style="text;html=1;strokeColor=none;fillColor=none;align=center;verticalAlign=middle;whiteSpace=wrap;rounded=0;editable=0;" parent="1" vertex="1">
          <mxGeometry x="55" y="183" width="95" height="13" as="geometry" />
        </mxCell>
        <mxCell id="kMU8WNk6aDGuvhEju-qt-8" value="向上增长" style="text;html=1;strokeColor=none;fillColor=none;align=center;verticalAlign=middle;whiteSpace=wrap;rounded=0;editable=0;" parent="1" vertex="1">
          <mxGeometry x="56.5" y="304" width="95" height="13" as="geometry" />
        </mxCell>
        <mxCell id="8dFWQaJelui2mqba3q5z-1" value="&lt;font face=&quot;Times New Roman&quot;&gt;next&lt;/font&gt;" style="rounded=0;whiteSpace=wrap;html=1;fillColor=#dae8fc;strokeColor=#6c8ebf;" vertex="1" parent="1">
          <mxGeometry x="332" y="206" width="82" height="33" as="geometry" />
        </mxCell>
        <mxCell id="8dFWQaJelui2mqba3q5z-2" value="&lt;font face=&quot;Times New Roman&quot;&gt;previous&lt;/font&gt;" style="rounded=0;whiteSpace=wrap;html=1;fillColor=#d5e8d4;strokeColor=#82b366;" vertex="1" parent="1">
          <mxGeometry x="332" y="239" width="82" height="32" as="geometry" />
        </mxCell>
        <mxCell id="8dFWQaJelui2mqba3q5z-3" value="&lt;font face=&quot;Times New Roman&quot;&gt;nodeCount&lt;/font&gt;" style="rounded=0;whiteSpace=wrap;html=1;fillColor=#ffe6cc;strokeColor=#d79b00;" vertex="1" parent="1">
          <mxGeometry x="332" y="271" width="82" height="32" as="geometry" />
        </mxCell>
        <mxCell id="8dFWQaJelui2mqba3q5z-4" value="&lt;font face=&quot;Times New Roman&quot;&gt;next&lt;/font&gt;" style="rounded=0;whiteSpace=wrap;html=1;fillColor=#dae8fc;strokeColor=#6c8ebf;resizable=0;" vertex="1" parent="1">
          <mxGeometry x="466" y="206" width="82" height="33" as="geometry" />
        </mxCell>
        <mxCell id="8dFWQaJelui2mqba3q5z-16" style="edgeStyle=orthogonalEdgeStyle;rounded=0;orthogonalLoop=1;jettySize=auto;html=1;exitX=0;exitY=0.5;exitDx=0;exitDy=0;entryX=1;entryY=0.5;entryDx=0;entryDy=0;" edge="1" parent="1" source="8dFWQaJelui2mqba3q5z-5" target="8dFWQaJelui2mqba3q5z-11">
          <mxGeometry relative="1" as="geometry" />
        </mxCell>
        <mxCell id="8dFWQaJelui2mqba3q5z-5" value="&lt;font face=&quot;Times New Roman&quot;&gt;previous&lt;/font&gt;" style="rounded=0;whiteSpace=wrap;html=1;fillColor=#d5e8d4;strokeColor=#82b366;resizable=0;" vertex="1" parent="1">
          <mxGeometry x="466" y="239" width="82" height="32" as="geometry" />
        </mxCell>
        <mxCell id="8dFWQaJelui2mqba3q5z-23" style="edgeStyle=orthogonalEdgeStyle;rounded=0;orthogonalLoop=1;jettySize=auto;html=1;fontFamily=Times New Roman;exitX=0.997;exitY=0.557;exitDx=0;exitDy=0;exitPerimeter=0;" edge="1" parent="1" source="8dFWQaJelui2mqba3q5z-6">
          <mxGeometry relative="1" as="geometry">
            <mxPoint x="330" y="225.48" as="targetPoint" />
            <mxPoint x="695" y="224.99724137931034" as="sourcePoint" />
            <Array as="points">
              <mxPoint x="723" y="224" />
              <mxPoint x="723" y="342" />
              <mxPoint x="294" y="342" />
              <mxPoint x="294" y="225" />
            </Array>
          </mxGeometry>
        </mxCell>
        <mxCell id="8dFWQaJelui2mqba3q5z-6" value="&lt;font face=&quot;Times New Roman&quot;&gt;next&lt;/font&gt;" style="rounded=0;whiteSpace=wrap;html=1;fillColor=#dae8fc;strokeColor=#6c8ebf;resizable=0;" vertex="1" parent="1">
          <mxGeometry x="599" y="206" width="82" height="33" as="geometry" />
        </mxCell>
        <mxCell id="8dFWQaJelui2mqba3q5z-17" style="edgeStyle=orthogonalEdgeStyle;rounded=0;orthogonalLoop=1;jettySize=auto;html=1;exitX=0;exitY=0.5;exitDx=0;exitDy=0;" edge="1" parent="1" source="8dFWQaJelui2mqba3q5z-7">
          <mxGeometry relative="1" as="geometry">
            <mxPoint x="548.8" y="255.20000000000005" as="targetPoint" />
          </mxGeometry>
        </mxCell>
        <mxCell id="8dFWQaJelui2mqba3q5z-7" value="&lt;font face=&quot;Times New Roman&quot;&gt;previous&lt;/font&gt;" style="rounded=0;whiteSpace=wrap;html=1;fillColor=#d5e8d4;strokeColor=#82b366;resizable=0;" vertex="1" parent="1">
          <mxGeometry x="599" y="239" width="82" height="32" as="geometry" />
        </mxCell>
        <mxCell id="8dFWQaJelui2mqba3q5z-9" value="" style="endArrow=classic;html=1;" edge="1" parent="1">
          <mxGeometry width="50" height="50" relative="1" as="geometry">
            <mxPoint x="414" y="222.07999999999998" as="sourcePoint" />
            <mxPoint x="464" y="222" as="targetPoint" />
          </mxGeometry>
        </mxCell>
        <mxCell id="8dFWQaJelui2mqba3q5z-10" value="&lt;font face=&quot;Times New Roman&quot;&gt;next&lt;/font&gt;" style="rounded=0;whiteSpace=wrap;html=1;fillColor=#dae8fc;strokeColor=#6c8ebf;" vertex="1" parent="1">
          <mxGeometry x="332" y="206.5" width="82" height="33" as="geometry" />
        </mxCell>
        <mxCell id="8dFWQaJelui2mqba3q5z-22" style="edgeStyle=orthogonalEdgeStyle;rounded=0;orthogonalLoop=1;jettySize=auto;html=1;exitX=0;exitY=0.5;exitDx=0;exitDy=0;fontFamily=Times New Roman;" edge="1" parent="1" source="8dFWQaJelui2mqba3q5z-11">
          <mxGeometry relative="1" as="geometry">
            <mxPoint x="681" y="256" as="targetPoint" />
            <Array as="points">
              <mxPoint x="307" y="255" />
              <mxPoint x="307" y="330" />
              <mxPoint x="708" y="330" />
              <mxPoint x="708" y="256" />
            </Array>
          </mxGeometry>
        </mxCell>
        <mxCell id="8dFWQaJelui2mqba3q5z-11" value="&lt;font face=&quot;Times New Roman&quot;&gt;previous&lt;/font&gt;" style="rounded=0;whiteSpace=wrap;html=1;fillColor=#d5e8d4;strokeColor=#82b366;" vertex="1" parent="1">
          <mxGeometry x="332" y="239.5" width="82" height="32" as="geometry" />
        </mxCell>
        <mxCell id="8dFWQaJelui2mqba3q5z-12" value="&lt;font face=&quot;Times New Roman&quot;&gt;nodeCount&lt;/font&gt;" style="rounded=0;whiteSpace=wrap;html=1;fillColor=#ffe6cc;strokeColor=#d79b00;" vertex="1" parent="1">
          <mxGeometry x="332" y="271.5" width="82" height="32" as="geometry" />
        </mxCell>
        <mxCell id="8dFWQaJelui2mqba3q5z-13" value="" style="endArrow=classic;html=1;" edge="1" parent="1">
          <mxGeometry width="50" height="50" relative="1" as="geometry">
            <mxPoint x="548" y="222.29999999999993" as="sourcePoint" />
            <mxPoint x="598" y="222.29999999999993" as="targetPoint" />
          </mxGeometry>
        </mxCell>
        <mxCell id="8dFWQaJelui2mqba3q5z-18" value="node1" style="text;html=1;strokeColor=none;fillColor=none;align=center;verticalAlign=middle;whiteSpace=wrap;rounded=0;fontFamily=Times New Roman;" vertex="1" parent="1">
          <mxGeometry x="487" y="269" width="40" height="20" as="geometry" />
        </mxCell>
        <mxCell id="8dFWQaJelui2mqba3q5z-19" value="headNode" style="text;html=1;strokeColor=none;fillColor=none;align=center;verticalAlign=middle;whiteSpace=wrap;rounded=0;fontFamily=Times New Roman;" vertex="1" parent="1">
          <mxGeometry x="353" y="300.5" width="40" height="20" as="geometry" />
        </mxCell>
        <mxCell id="8dFWQaJelui2mqba3q5z-20" value="node2" style="text;html=1;strokeColor=none;fillColor=none;align=center;verticalAlign=middle;whiteSpace=wrap;rounded=0;fontFamily=Times New Roman;" vertex="1" parent="1">
          <mxGeometry x="623" y="271.5" width="40" height="20" as="geometry" />
        </mxCell>
      </root>
    </mxGraphModel>
  </diagram>
</mxfile>
